<?xml version="1.0" encoding="UTF-8"?>
<svg id="Layer_2" data-name="Layer 2" xmlns="http://www.w3.org/2000/svg" viewBox="0 0 92.96 71.72">
  <defs>
    <style>
      .cls-1 {
        fill: #25b2e7;
      }
    </style>
  </defs>
  <g id="Layer_1-2" data-name="Layer 1">
    <path class="cls-1" d="m66.69,0c-3.51,0-6.36,2.85-6.36,6.36s2.85,6.36,6.36,6.36c3.51,0,6.36-2.85,6.36-6.36-.01-3.51-2.85-6.35-6.36-6.36m21.7,30.29c-4.92-7.18-13.06-11.47-21.76-11.47-8.71-.02-16.87,4.29-21.76,11.5h0c-3.98,5.8-5.47,12.96-4.15,19.87.03.16.06.32.11.47.56,2.16,2.52,3.66,4.75,3.62,1,0,1.97-.31,2.79-.87,1.27-.91,2.03-2.38,2.03-3.95.02-.25.02-.49,0-.74h0v-.36c-.2-1.02-.3-2.06-.29-3.1,0-8.71,6.68-15.97,15.36-16.7h1.38c9.25-.48,17.13,6.63,17.61,15.88s-6.63,17.13-15.88,17.61c-.58.03-1.15.03-1.73,0H18.16c-4.7,0-8.5-3.81-8.5-8.51,0-4.69,3.81-8.5,8.5-8.5,3.72.01,7.01,2.43,8.13,5.98.89,2.51,3.64,3.83,6.15,2.94,2.38-.84,3.71-3.38,3.05-5.82-2.2-7.12-8.55-12.16-15.98-12.68h0c0-.09,0-.18,0-.27,2.2-6.96,8.66-11.7,15.96-11.7,1.91,0,3.81.32,5.6.96,2.54.8,5.25-.61,6.04-3.16.76-2.41-.48-5-2.83-5.93-2.61-.93-5.35-1.44-8.13-1.5h-.69c-13.61.02-24.99,10.38-26.27,23.93C.48,42.74-2.58,53.82,2.37,62.53c3.22,5.67,9.23,9.18,15.75,9.19h48.46c14.57,0,26.38-11.82,26.38-26.39,0-5.32-1.61-10.52-4.62-14.91"/>
  </g>
</svg>